<svg width="26" height="15" viewBox="0 0 26 15" fill="none" xmlns="http://www.w3.org/2000/svg">
<g clip-path="url(#clip0_3_32)">
<path d="M20.2461 1.88769C21.9142 1.80133 23.7947 2.27674 24.873 3.51269C26.9707 6.33764 26.0156 10.3066 23.0391 12.0801C20.2671 13.2683 16.749 12.9928 13.6445 13.0127C14.4325 9.30721 15.2218 5.60154 16.0117 1.89648C17.4227 1.89005 18.837 1.90964 20.2461 1.88769ZM6.62988 1.89648C6.34684 3.1257 6.06282 4.49664 5.77832 5.72558H9.03418C9.33421 4.44931 9.63669 3.17337 9.93359 1.89648H13.9893C13.1395 5.59646 12.2838 9.29559 11.4268 12.9941H7.35938C7.68906 11.563 8.02162 10.1321 8.35254 8.70117H5.09668C4.75809 10.1802 4.41037 11.5159 4.06738 12.9941H0C0.838135 9.36836 1.67673 5.74242 2.51758 2.11718L2.53516 2.03906L2.56836 1.89648H6.62988ZM20.4268 4.68359C20.0177 4.72229 19.6032 4.71154 19.1885 4.71093C18.7988 6.54584 18.4092 8.38091 18.0195 10.2158C18.6465 10.2227 19.2958 10.2363 19.8896 10.1338C21.7578 9.65595 22.4115 7.68553 22.1777 6.11621C22.2505 5.295 21.3686 4.60661 20.4268 4.68359Z" fill="white"/>
</g>
<defs>
<clipPath id="clip0_3_32">
<rect width="26" height="15" fill="white"/>
</clipPath>
</defs>
</svg>
